<svg xmlns="http://www.w3.org/2000/svg" version="1.1" xmlns:xlink="http://www.w3.org/1999/xlink" xmlns:svgjs="http://svgjs.com/svgjs" width="158.06763" height="141.12"><svg viewBox="0 0 158.06763 141.12" version="1.1" id="SvgjsSvg1015" sodipodi:docname="PENNYLANE Logo - Full Colour (Stacked)(1).svg" width="158.06763" height="141.12" inkscape:version="1.2 (dc2aedaf03, 2022-05-15)" xmlns:inkscape="http://www.inkscape.org/namespaces/inkscape" xmlns:sodipodi="http://sodipodi.sourceforge.net/DTD/sodipodi-0.dtd" xmlns="http://www.w3.org/2000/svg" xmlns:svg="http://www.w3.org/2000/svg">
  <sodipodi:namedview id="SvgjsSodipodi:namedview1014" pagecolor="#ffffff" bordercolor="#666666" borderopacity="1.0" inkscape:showpageshadow="2" inkscape:pageopacity="0.0" inkscape:pagecheckerboard="0" inkscape:deskcolor="#d1d1d1" showgrid="false" inkscape:zoom="2.42" inkscape:cx="79.338843" inkscape:cy="119.83471" inkscape:window-width="1920" inkscape:window-height="1137" inkscape:window-x="-8" inkscape:window-y="-8" inkscape:window-maximized="1" inkscape:current-layer="svg52"></sodipodi:namedview>
  <defs id="SvgjsDefs1013">
    <style id="SvgjsStyle1012">.cls-1{fill:none;}.cls-2{fill:#00b1ff;}.cls-3{fill:#ffbe0c;}.cls-4{fill:#ff00d9;}</style>
  </defs>
  <g id="SvgjsG1011" transform="translate(-170.7256,-49.53)">
    <g id="SvgjsG1010">
      <path class="cls-2" d="m 261.84,170.85 c -0.28,0.02 -0.57,0.02 -0.85,0.02 -7.96,0 -14.62,-6.22 -15.07,-14.27 L 244.81,136.62 216.89,88.27 200.56,77.59 c -6.96,-4.55 -9.37,-13.9 -4.95,-20.94 0.45,-0.72 0.97,-1.38 1.52,-2 -4.66,-5.26 -12.53,-6.71 -18.85,-3.06 -7.22,4.17 -9.7,13.41 -5.53,20.63 l 64.02,110.88 c 2.8,4.85 7.87,7.55 13.09,7.55 2.56,0 5.16,-0.65 7.54,-2.03 6.4,-3.7 9.06,-11.37 6.68,-18.1 -0.73,0.15 -1.48,0.27 -2.25,0.31 z" id="SvgjsPath1009"></path>
      <path class="cls-2" d="m 324.5,54.08 c -2.9,-3 -6.99,-4.55 -11.17,-4.55 h -67.81 c -7.19,0 -13.19,5.03 -14.71,11.76 l 28.21,18.44 h 15.81 c 5.64,0 9.17,6.11 6.35,11 l -7.9,13.69 1.87,33.66 c 1.46,0.45 2.96,0.68 4.45,0.68 5.22,0 10.3,-2.71 13.09,-7.55 l 34.08,-59.02 c 3.31,-5.74 2.56,-13.11 -2.26,-18.1 z" id="SvgjsPath1008"></path>
    </g>
    <path class="cls-3" d="m 266.77,115.69 6.51,-11.27 -0.46,-8.32 c -0.27,-4.79 -2.8,-9.18 -6.81,-11.8 l -6.98,-4.56 h -13.07 c -8.13,0 -15.13,-6.25 -15.51,-14.37 -0.07,-1.41 0.08,-2.77 0.37,-4.07 l -14.14,-9.25 c -6.35,-4.15 -14.65,-2.89 -19.54,2.62 0.66,0.75 1.26,1.57 1.78,2.47 l 17.98,31.14 22.36,14.62 c 2.4,1.57 3.92,4.19 4.07,7.06 l 1.48,26.68 18.12,31.38 c 0.47,0.82 0.85,1.67 1.15,2.53 7.19,-1.49 12.41,-8.04 11.99,-15.6 l -0.94,-16.86 c -1.34,-0.42 -2.64,-1.02 -3.88,-1.84 -6.73,-4.44 -8.53,-13.57 -4.5,-20.55 z" id="SvgjsPath1007"></path>
    <g id="SvgjsG1006">
      <path class="cls-4" d="m 197.14,54.66 c -0.55,0.62 -1.06,1.27 -1.52,2 -4.42,7.04 -2.01,16.39 4.95,20.94 L 216.9,88.28 198.92,57.14 c -0.52,-0.9 -1.12,-1.72 -1.78,-2.47 z" id="SvgjsPath1005"></path>
      <path class="cls-4" d="m 244.82,136.63 1.11,19.98 c 0.45,8.04 7.11,14.27 15.07,14.27 0.28,0 0.57,0 0.85,-0.02 0.77,-0.04 1.52,-0.16 2.25,-0.31 -0.3,-0.86 -0.68,-1.71 -1.15,-2.53 l -18.12,-31.38 z" id="SvgjsPath1004"></path>
      <path class="cls-4" d="M 259.02,79.73 230.81,61.29 c -0.29,1.3 -0.44,2.66 -0.37,4.07 0.38,8.12 7.38,14.37 15.51,14.37 z" id="SvgjsPath1003"></path>
      <path class="cls-4" d="m 273.28,104.42 -6.51,11.27 c -4.03,6.98 -2.23,16.11 4.5,20.55 1.24,0.82 2.54,1.42 3.88,1.84 z" id="SvgjsPath1002"></path>
    </g>
  </g>
  <g id="SvgjsG1001" transform="translate(-170.7256,-49.53)">
    <rect class="cls-1" width="500" height="339" id="SvgjsRect1000" x="0" y="0"></rect>
  </g>
</svg><style>@media (prefers-color-scheme: light) { :root { filter: none; } }
</style></svg>