<?xml version="1.0" standalone="no"?>
<!DOCTYPE svg PUBLIC "-//W3C//DTD SVG 20010904//EN"
 "http://www.w3.org/TR/2001/REC-SVG-20010904/DTD/svg10.dtd">
<svg version="1.0" xmlns="http://www.w3.org/2000/svg"
 width="495.000000pt" height="495.000000pt" viewBox="0 0 495.000000 495.000000"
 preserveAspectRatio="xMidYMid meet">
<metadata>
Created by potrace 1.14, written by Peter Selinger 2001-2017
</metadata>
<g transform="translate(0.000000,495.000000) scale(0.100000,-0.100000)"
fill="#000000" stroke="none">
<path d="M447 4580 c-81 -10 -191 -67 -256 -132 -76 -77 -120 -174 -128 -281
-11 -156 3 -189 291 -678 11 -20 165 -285 340 -590 176 -305 375 -651 444
-769 69 -118 134 -231 144 -250 11 -19 44 -75 73 -125 30 -49 193 -333 364
-630 369 -642 382 -664 436 -713 68 -64 178 -112 268 -119 146 -11 251 25 356
123 87 80 133 177 139 293 6 102 -12 207 -46 275 -14 28 -28 53 -31 56 -4 3
-12 17 -18 32 -7 15 -24 46 -40 70 -15 24 -34 57 -43 73 -23 43 -44 79 -50 85
-3 3 -13 21 -23 40 -9 19 -26 49 -37 65 -11 17 -26 44 -35 60 -9 17 -27 48
-40 70 -13 22 -30 51 -38 65 -89 158 -190 327 -201 335 -7 6 -120 197 -251
425 -131 228 -294 512 -363 630 -68 118 -132 229 -142 245 -9 17 -34 57 -54
90 -20 33 -36 66 -36 74 0 16 -480 854 -492 859 -4 2 -8 10 -8 17 0 19 -92
155 -105 155 -6 0 -22 12 -36 26 -86 93 -236 141 -382 124z"/>
<path d="M2260 4580 c-82 -11 -179 -61 -245 -128 -61 -61 -77 -87 -120 -196
-26 -64 -27 -77 -21 -158 3 -56 13 -105 26 -133 11 -24 20 -46 20 -49 0 -11
60 -93 87 -118 43 -41 133 -96 167 -104 17 -3 37 -11 45 -18 10 -8 156 -10
530 -8 366 3 525 0 546 -8 136 -51 193 -195 129 -323 -47 -92 -235 -412 -244
-415 -11 -4 -140 -224 -140 -239 0 -6 -4 -13 -9 -15 -5 -1 -29 -42 -54 -89
-59 -113 -76 -220 -53 -348 8 -46 19 -87 24 -90 5 -3 13 -17 17 -31 18 -58
122 -163 203 -204 34 -17 54 -21 177 -32 50 -4 88 -1 134 11 164 42 236 110
368 345 11 19 88 152 171 295 123 213 624 1082 693 1202 10 17 29 49 42 70 13
21 44 78 68 127 l44 90 0 115 c0 113 -1 118 -37 191 -57 118 -143 196 -267
243 -56 22 -59 22 -1151 23 -602 1 -1120 -2 -1150 -6z"/>
</g>
</svg>
