<?xml version="1.0" standalone="no"?>
<!DOCTYPE svg PUBLIC "-//W3C//DTD SVG 20010904//EN"
 "http://www.w3.org/TR/2001/REC-SVG-20010904/DTD/svg10.dtd">
<svg version="1.0" xmlns="http://www.w3.org/2000/svg"
 width="632.000000pt" height="632.000000pt" viewBox="0 0 632.000000 632.000000"
 preserveAspectRatio="xMidYMid meet">
<metadata>
Created by potrace 1.14, written by Peter Selinger 2001-2017
</metadata>
<g transform="translate(0.000000,632.000000) scale(0.100000,-0.100000)"
fill="#000000" stroke="none">
<path d="M540 5969 c-144 -17 -256 -72 -360 -178 -121 -121 -175 -255 -173
-426 0 -66 7 -110 25 -165 19 -57 331 -606 1318 -2315 711 -1232 1306 -2258
1321 -2280 122 -180 362 -288 568 -255 256 41 445 212 507 460 20 80 14 233
-14 330 -13 48 -115 233 -382 695 -200 347 -371 639 -380 650 -20 23 -1094
1883 -1132 1960 -33 67 -726 1264 -747 1291 -37 47 -145 134 -209 167 -103 54
-232 79 -342 66z"/>
<path d="M2925 5973 c-138 -20 -261 -80 -354 -173 -71 -71 -114 -143 -157
-260 -92 -256 44 -566 307 -698 145 -73 148 -74 873 -70 l641 3 57 -28 c132
-65 200 -224 153 -357 -15 -43 -310 -561 -350 -615 -43 -57 -284 -486 -304
-540 -105 -279 19 -615 276 -748 241 -125 565 -65 737 137 52 61 1444 2467
1473 2546 30 81 45 186 38 255 -30 257 -198 456 -450 531 -56 17 -144 18
-1485 20 -784 1 -1438 -1 -1455 -3z"/>
</g>
</svg>
